<svg xmlns="http://www.w3.org/2000/svg" viewBox="1 1 600 600">
    <g transform="translate(-5.667 -6408.081)scale(6.66667)">
        <linearGradient id="a" x1="-110.934" x2="-110.35" y1="1129.751" y2="1720.099"
            gradientTransform="matrix(1 0 0 -1 156.89 2180.75)" gradientUnits="userSpaceOnUse">
            <stop offset="0" stop-color="#59bff5" />
            <stop offset="1" stop-color="#1d6ffa" />
        </linearGradient>
        <path fill="url(#a)"
            d="M21.653 961.362h48.695a20.61 20.61 0 0 1 20.653 20.653v48.695a20.61 20.61 0 0 1-20.653 20.653H21.653A20.61 20.61 0 0 1 1 1030.71v-48.695a20.61 20.61 0 0 1 20.653-20.653" />
        <path fill="#fff"
            d="M20.719 986.956q-.71-.001-1.344.25l8.469 8.719 8.563 8.875.156.188.25.25.25.25.5.531 7.344 7.531c.122.076.477.404.754.543.357.178.743.343 1.141.357.43.015.869-.108 1.256-.296.29-.141.419-.343.755-.603l8.5-8.781 8.594-8.844 8.281-8.531a3.64 3.64 0 0 0-1.75-.438zm-2.594 1.062c-.903.856-1.469 2.142-1.469 3.594v28.625c0 1.175.377 2.243 1 3.062l1.187-1.125 8.844-8.594 7.844-7.594-.156-.187-8.594-8.844-8.594-8.875zm57.188.282-8.375 8.656-8.563 8.844-.156.156 8.156 7.906 8.844 8.594.531.5c.476-.764.75-1.705.75-2.719v-28.625c0-1.294-.448-2.468-1.187-3.312m-38.782 18.718-7.812 7.594-8.875 8.594-1.125 1.094c.593.382 1.268.625 2 .625h51.719c.88 0 1.678-.338 2.344-.875l-.562-.562-8.875-8.594-8.156-7.875-7.344 7.562c-.397.264-.663.556-1.051.735-.625.289-1.309.533-1.997.523-.69-.011-1.367-.281-1.986-.585-.311-.153-.477-.305-.841-.61z" />
    </g>
</svg>