<?xml version="1.0" encoding="UTF-8"?>
<!DOCTYPE svg PUBLIC "-//W3C//DTD SVG 1.1//EN" "http://www.w3.org/Graphics/SVG/1.1/DTD/svg11.dtd">
<svg xmlns="http://www.w3.org/2000/svg" version="1.1" viewBox="0 0 53 53" stroke="none">
	<rect width="100%" height="100%" fill="#eee2ce"/>
	<path d="M4,4h1v1h-1z M5,4h1v1h-1z M6,4h1v1h-1z M7,4h1v1h-1z M8,4h1v1h-1z M9,4h1v1h-1z M10,4h1v1h-1z M14,4h1v1h-1z M17,4h1v1h-1z M18,4h1v1h-1z M19,4h1v1h-1z M21,4h1v1h-1z M25,4h1v1h-1z M29,4h1v1h-1z M31,4h1v1h-1z M33,4h1v1h-1z M34,4h1v1h-1z M36,4h1v1h-1z M40,4h1v1h-1z M42,4h1v1h-1z M43,4h1v1h-1z M44,4h1v1h-1z M45,4h1v1h-1z M46,4h1v1h-1z M47,4h1v1h-1z M48,4h1v1h-1z M4,5h1v1h-1z M10,5h1v1h-1z M12,5h1v1h-1z M15,5h1v1h-1z M16,5h1v1h-1z M17,5h1v1h-1z M18,5h1v1h-1z M20,5h1v1h-1z M22,5h1v1h-1z M25,5h1v1h-1z M26,5h1v1h-1z M27,5h1v1h-1z M32,5h1v1h-1z M36,5h1v1h-1z M37,5h1v1h-1z M39,5h1v1h-1z M42,5h1v1h-1z M48,5h1v1h-1z M4,6h1v1h-1z M6,6h1v1h-1z M7,6h1v1h-1z M8,6h1v1h-1z M10,6h1v1h-1z M14,6h1v1h-1z M17,6h1v1h-1z M18,6h1v1h-1z M20,6h1v1h-1z M25,6h1v1h-1z M26,6h1v1h-1z M28,6h1v1h-1z M30,6h1v1h-1z M31,6h1v1h-1z M34,6h1v1h-1z M35,6h1v1h-1z M36,6h1v1h-1z M37,6h1v1h-1z M39,6h1v1h-1z M42,6h1v1h-1z M44,6h1v1h-1z M45,6h1v1h-1z M46,6h1v1h-1z M48,6h1v1h-1z M4,7h1v1h-1z M6,7h1v1h-1z M7,7h1v1h-1z M8,7h1v1h-1z M10,7h1v1h-1z M14,7h1v1h-1z M17,7h1v1h-1z M22,7h1v1h-1z M25,7h1v1h-1z M28,7h1v1h-1z M30,7h1v1h-1z M34,7h1v1h-1z M37,7h1v1h-1z M39,7h1v1h-1z M40,7h1v1h-1z M42,7h1v1h-1z M44,7h1v1h-1z M45,7h1v1h-1z M46,7h1v1h-1z M48,7h1v1h-1z M4,8h1v1h-1z M6,8h1v1h-1z M7,8h1v1h-1z M8,8h1v1h-1z M10,8h1v1h-1z M14,8h1v1h-1z M16,8h1v1h-1z M18,8h1v1h-1z M20,8h1v1h-1z M21,8h1v1h-1z M22,8h1v1h-1z M23,8h1v1h-1z M24,8h1v1h-1z M25,8h1v1h-1z M26,8h1v1h-1z M27,8h1v1h-1z M28,8h1v1h-1z M29,8h1v1h-1z M30,8h1v1h-1z M33,8h1v1h-1z M34,8h1v1h-1z M36,8h1v1h-1z M37,8h1v1h-1z M38,8h1v1h-1z M39,8h1v1h-1z M40,8h1v1h-1z M42,8h1v1h-1z M44,8h1v1h-1z M45,8h1v1h-1z M46,8h1v1h-1z M48,8h1v1h-1z M4,9h1v1h-1z M10,9h1v1h-1z M12,9h1v1h-1z M13,9h1v1h-1z M14,9h1v1h-1z M16,9h1v1h-1z M18,9h1v1h-1z M19,9h1v1h-1z M21,9h1v1h-1z M22,9h1v1h-1z M24,9h1v1h-1z M28,9h1v1h-1z M29,9h1v1h-1z M30,9h1v1h-1z M31,9h1v1h-1z M36,9h1v1h-1z M37,9h1v1h-1z M42,9h1v1h-1z M48,9h1v1h-1z M4,10h1v1h-1z M5,10h1v1h-1z M6,10h1v1h-1z M7,10h1v1h-1z M8,10h1v1h-1z M9,10h1v1h-1z M10,10h1v1h-1z M12,10h1v1h-1z M14,10h1v1h-1z M16,10h1v1h-1z M18,10h1v1h-1z M20,10h1v1h-1z M22,10h1v1h-1z M24,10h1v1h-1z M26,10h1v1h-1z M28,10h1v1h-1z M30,10h1v1h-1z M32,10h1v1h-1z M34,10h1v1h-1z M36,10h1v1h-1z M38,10h1v1h-1z M40,10h1v1h-1z M42,10h1v1h-1z M43,10h1v1h-1z M44,10h1v1h-1z M45,10h1v1h-1z M46,10h1v1h-1z M47,10h1v1h-1z M48,10h1v1h-1z M12,11h1v1h-1z M13,11h1v1h-1z M14,11h1v1h-1z M15,11h1v1h-1z M16,11h1v1h-1z M18,11h1v1h-1z M23,11h1v1h-1z M24,11h1v1h-1z M28,11h1v1h-1z M30,11h1v1h-1z M34,11h1v1h-1z M35,11h1v1h-1z M36,11h1v1h-1z M39,11h1v1h-1z M40,11h1v1h-1z M8,12h1v1h-1z M9,12h1v1h-1z M10,12h1v1h-1z M11,12h1v1h-1z M17,12h1v1h-1z M19,12h1v1h-1z M20,12h1v1h-1z M24,12h1v1h-1z M25,12h1v1h-1z M26,12h1v1h-1z M27,12h1v1h-1z M28,12h1v1h-1z M29,12h1v1h-1z M30,12h1v1h-1z M33,12h1v1h-1z M35,12h1v1h-1z M36,12h1v1h-1z M37,12h1v1h-1z M38,12h1v1h-1z M42,12h1v1h-1z M43,12h1v1h-1z M47,12h1v1h-1z M4,13h1v1h-1z M5,13h1v1h-1z M7,13h1v1h-1z M11,13h1v1h-1z M13,13h1v1h-1z M14,13h1v1h-1z M15,13h1v1h-1z M16,13h1v1h-1z M18,13h1v1h-1z M19,13h1v1h-1z M20,13h1v1h-1z M23,13h1v1h-1z M24,13h1v1h-1z M26,13h1v1h-1z M28,13h1v1h-1z M30,13h1v1h-1z M31,13h1v1h-1z M33,13h1v1h-1z M34,13h1v1h-1z M35,13h1v1h-1z M40,13h1v1h-1z M41,13h1v1h-1z M42,13h1v1h-1z M43,13h1v1h-1z M46,13h1v1h-1z M47,13h1v1h-1z M4,14h1v1h-1z M5,14h1v1h-1z M8,14h1v1h-1z M9,14h1v1h-1z M10,14h1v1h-1z M12,14h1v1h-1z M14,14h1v1h-1z M16,14h1v1h-1z M17,14h1v1h-1z M21,14h1v1h-1z M24,14h1v1h-1z M26,14h1v1h-1z M27,14h1v1h-1z M28,14h1v1h-1z M29,14h1v1h-1z M32,14h1v1h-1z M34,14h1v1h-1z M37,14h1v1h-1z M41,14h1v1h-1z M42,14h1v1h-1z M43,14h1v1h-1z M44,14h1v1h-1z M47,14h1v1h-1z M17,15h1v1h-1z M20,15h1v1h-1z M24,15h1v1h-1z M27,15h1v1h-1z M28,15h1v1h-1z M30,15h1v1h-1z M31,15h1v1h-1z M32,15h1v1h-1z M36,15h1v1h-1z M37,15h1v1h-1z M45,15h1v1h-1z M47,15h1v1h-1z M48,15h1v1h-1z M4,16h1v1h-1z M7,16h1v1h-1z M9,16h1v1h-1z M10,16h1v1h-1z M11,16h1v1h-1z M12,16h1v1h-1z M13,16h1v1h-1z M14,16h1v1h-1z M15,16h1v1h-1z M16,16h1v1h-1z M18,16h1v1h-1z M19,16h1v1h-1z M20,16h1v1h-1z M21,16h1v1h-1z M22,16h1v1h-1z M23,16h1v1h-1z M25,16h1v1h-1z M26,16h1v1h-1z M28,16h1v1h-1z M33,16h1v1h-1z M34,16h1v1h-1z M36,16h1v1h-1z M37,16h1v1h-1z M38,16h1v1h-1z M39,16h1v1h-1z M41,16h1v1h-1z M42,16h1v1h-1z M45,16h1v1h-1z M47,16h1v1h-1z M48,16h1v1h-1z M6,17h1v1h-1z M9,17h1v1h-1z M11,17h1v1h-1z M12,17h1v1h-1z M14,17h1v1h-1z M17,17h1v1h-1z M21,17h1v1h-1z M22,17h1v1h-1z M23,17h1v1h-1z M24,17h1v1h-1z M25,17h1v1h-1z M27,17h1v1h-1z M28,17h1v1h-1z M31,17h1v1h-1z M32,17h1v1h-1z M34,17h1v1h-1z M35,17h1v1h-1z M36,17h1v1h-1z M39,17h1v1h-1z M40,17h1v1h-1z M42,17h1v1h-1z M44,17h1v1h-1z M4,18h1v1h-1z M5,18h1v1h-1z M7,18h1v1h-1z M9,18h1v1h-1z M10,18h1v1h-1z M12,18h1v1h-1z M15,18h1v1h-1z M16,18h1v1h-1z M17,18h1v1h-1z M18,18h1v1h-1z M20,18h1v1h-1z M21,18h1v1h-1z M22,18h1v1h-1z M25,18h1v1h-1z M26,18h1v1h-1z M27,18h1v1h-1z M28,18h1v1h-1z M31,18h1v1h-1z M32,18h1v1h-1z M33,18h1v1h-1z M34,18h1v1h-1z M35,18h1v1h-1z M36,18h1v1h-1z M37,18h1v1h-1z M41,18h1v1h-1z M42,18h1v1h-1z M43,18h1v1h-1z M44,18h1v1h-1z M45,18h1v1h-1z M47,18h1v1h-1z M4,19h1v1h-1z M6,19h1v1h-1z M7,19h1v1h-1z M8,19h1v1h-1z M11,19h1v1h-1z M15,19h1v1h-1z M18,19h1v1h-1z M24,19h1v1h-1z M25,19h1v1h-1z M26,19h1v1h-1z M29,19h1v1h-1z M30,19h1v1h-1z M31,19h1v1h-1z M33,19h1v1h-1z M36,19h1v1h-1z M38,19h1v1h-1z M40,19h1v1h-1z M47,19h1v1h-1z M4,20h1v1h-1z M6,20h1v1h-1z M7,20h1v1h-1z M9,20h1v1h-1z M10,20h1v1h-1z M11,20h1v1h-1z M12,20h1v1h-1z M15,20h1v1h-1z M16,20h1v1h-1z M19,20h1v1h-1z M20,20h1v1h-1z M23,20h1v1h-1z M27,20h1v1h-1z M28,20h1v1h-1z M30,20h1v1h-1z M31,20h1v1h-1z M33,20h1v1h-1z M35,20h1v1h-1z M36,20h1v1h-1z M41,20h1v1h-1z M43,20h1v1h-1z M45,20h1v1h-1z M48,20h1v1h-1z M5,21h1v1h-1z M6,21h1v1h-1z M7,21h1v1h-1z M13,21h1v1h-1z M15,21h1v1h-1z M19,21h1v1h-1z M20,21h1v1h-1z M23,21h1v1h-1z M24,21h1v1h-1z M27,21h1v1h-1z M28,21h1v1h-1z M31,21h1v1h-1z M32,21h1v1h-1z M34,21h1v1h-1z M37,21h1v1h-1z M39,21h1v1h-1z M40,21h1v1h-1z M42,21h1v1h-1z M43,21h1v1h-1z M45,21h1v1h-1z M46,21h1v1h-1z M47,21h1v1h-1z M4,22h1v1h-1z M5,22h1v1h-1z M8,22h1v1h-1z M9,22h1v1h-1z M10,22h1v1h-1z M14,22h1v1h-1z M15,22h1v1h-1z M18,22h1v1h-1z M19,22h1v1h-1z M21,22h1v1h-1z M24,22h1v1h-1z M25,22h1v1h-1z M27,22h1v1h-1z M30,22h1v1h-1z M32,22h1v1h-1z M33,22h1v1h-1z M35,22h1v1h-1z M36,22h1v1h-1z M37,22h1v1h-1z M40,22h1v1h-1z M42,22h1v1h-1z M44,22h1v1h-1z M47,22h1v1h-1z M8,23h1v1h-1z M11,23h1v1h-1z M12,23h1v1h-1z M13,23h1v1h-1z M15,23h1v1h-1z M16,23h1v1h-1z M17,23h1v1h-1z M22,23h1v1h-1z M26,23h1v1h-1z M28,23h1v1h-1z M29,23h1v1h-1z M30,23h1v1h-1z M31,23h1v1h-1z M34,23h1v1h-1z M36,23h1v1h-1z M39,23h1v1h-1z M43,23h1v1h-1z M48,23h1v1h-1z M4,24h1v1h-1z M5,24h1v1h-1z M6,24h1v1h-1z M7,24h1v1h-1z M8,24h1v1h-1z M9,24h1v1h-1z M10,24h1v1h-1z M11,24h1v1h-1z M12,24h1v1h-1z M14,24h1v1h-1z M16,24h1v1h-1z M19,24h1v1h-1z M22,24h1v1h-1z M23,24h1v1h-1z M24,24h1v1h-1z M25,24h1v1h-1z M26,24h1v1h-1z M27,24h1v1h-1z M28,24h1v1h-1z M31,24h1v1h-1z M32,24h1v1h-1z M36,24h1v1h-1z M37,24h1v1h-1z M38,24h1v1h-1z M40,24h1v1h-1z M41,24h1v1h-1z M42,24h1v1h-1z M43,24h1v1h-1z M44,24h1v1h-1z M48,24h1v1h-1z M5,25h1v1h-1z M8,25h1v1h-1z M12,25h1v1h-1z M15,25h1v1h-1z M16,25h1v1h-1z M17,25h1v1h-1z M20,25h1v1h-1z M23,25h1v1h-1z M24,25h1v1h-1z M28,25h1v1h-1z M29,25h1v1h-1z M30,25h1v1h-1z M33,25h1v1h-1z M35,25h1v1h-1z M36,25h1v1h-1z M39,25h1v1h-1z M40,25h1v1h-1z M44,25h1v1h-1z M45,25h1v1h-1z M46,25h1v1h-1z M47,25h1v1h-1z M5,26h1v1h-1z M8,26h1v1h-1z M10,26h1v1h-1z M12,26h1v1h-1z M16,26h1v1h-1z M17,26h1v1h-1z M18,26h1v1h-1z M23,26h1v1h-1z M24,26h1v1h-1z M26,26h1v1h-1z M28,26h1v1h-1z M30,26h1v1h-1z M31,26h1v1h-1z M33,26h1v1h-1z M39,26h1v1h-1z M40,26h1v1h-1z M42,26h1v1h-1z M44,26h1v1h-1z M45,26h1v1h-1z M46,26h1v1h-1z M47,26h1v1h-1z M8,27h1v1h-1z M12,27h1v1h-1z M13,27h1v1h-1z M14,27h1v1h-1z M16,27h1v1h-1z M17,27h1v1h-1z M19,27h1v1h-1z M21,27h1v1h-1z M23,27h1v1h-1z M24,27h1v1h-1z M28,27h1v1h-1z M35,27h1v1h-1z M36,27h1v1h-1z M38,27h1v1h-1z M39,27h1v1h-1z M40,27h1v1h-1z M44,27h1v1h-1z M47,27h1v1h-1z M48,27h1v1h-1z M7,28h1v1h-1z M8,28h1v1h-1z M9,28h1v1h-1z M10,28h1v1h-1z M11,28h1v1h-1z M12,28h1v1h-1z M17,28h1v1h-1z M18,28h1v1h-1z M19,28h1v1h-1z M21,28h1v1h-1z M22,28h1v1h-1z M24,28h1v1h-1z M25,28h1v1h-1z M26,28h1v1h-1z M27,28h1v1h-1z M28,28h1v1h-1z M29,28h1v1h-1z M30,28h1v1h-1z M31,28h1v1h-1z M34,28h1v1h-1z M35,28h1v1h-1z M36,28h1v1h-1z M40,28h1v1h-1z M41,28h1v1h-1z M42,28h1v1h-1z M43,28h1v1h-1z M44,28h1v1h-1z M4,29h1v1h-1z M5,29h1v1h-1z M6,29h1v1h-1z M7,29h1v1h-1z M8,29h1v1h-1z M11,29h1v1h-1z M13,29h1v1h-1z M15,29h1v1h-1z M18,29h1v1h-1z M19,29h1v1h-1z M20,29h1v1h-1z M21,29h1v1h-1z M23,29h1v1h-1z M25,29h1v1h-1z M26,29h1v1h-1z M27,29h1v1h-1z M28,29h1v1h-1z M29,29h1v1h-1z M30,29h1v1h-1z M32,29h1v1h-1z M33,29h1v1h-1z M34,29h1v1h-1z M36,29h1v1h-1z M39,29h1v1h-1z M40,29h1v1h-1z M43,29h1v1h-1z M45,29h1v1h-1z M46,29h1v1h-1z M4,30h1v1h-1z M5,30h1v1h-1z M7,30h1v1h-1z M9,30h1v1h-1z M10,30h1v1h-1z M14,30h1v1h-1z M15,30h1v1h-1z M16,30h1v1h-1z M18,30h1v1h-1z M19,30h1v1h-1z M21,30h1v1h-1z M26,30h1v1h-1z M32,30h1v1h-1z M34,30h1v1h-1z M40,30h1v1h-1z M41,30h1v1h-1z M43,30h1v1h-1z M44,30h1v1h-1z M4,31h1v1h-1z M7,31h1v1h-1z M8,31h1v1h-1z M13,31h1v1h-1z M15,31h1v1h-1z M18,31h1v1h-1z M20,31h1v1h-1z M21,31h1v1h-1z M22,31h1v1h-1z M23,31h1v1h-1z M25,31h1v1h-1z M28,31h1v1h-1z M29,31h1v1h-1z M33,31h1v1h-1z M34,31h1v1h-1z M35,31h1v1h-1z M36,31h1v1h-1z M41,31h1v1h-1z M42,31h1v1h-1z M44,31h1v1h-1z M45,31h1v1h-1z M47,31h1v1h-1z M5,32h1v1h-1z M7,32h1v1h-1z M8,32h1v1h-1z M9,32h1v1h-1z M10,32h1v1h-1z M11,32h1v1h-1z M12,32h1v1h-1z M13,32h1v1h-1z M15,32h1v1h-1z M17,32h1v1h-1z M18,32h1v1h-1z M20,32h1v1h-1z M21,32h1v1h-1z M22,32h1v1h-1z M23,32h1v1h-1z M26,32h1v1h-1z M31,32h1v1h-1z M34,32h1v1h-1z M35,32h1v1h-1z M36,32h1v1h-1z M37,32h1v1h-1z M38,32h1v1h-1z M41,32h1v1h-1z M42,32h1v1h-1z M43,32h1v1h-1z M44,32h1v1h-1z M6,33h1v1h-1z M7,33h1v1h-1z M8,33h1v1h-1z M12,33h1v1h-1z M13,33h1v1h-1z M14,33h1v1h-1z M15,33h1v1h-1z M18,33h1v1h-1z M20,33h1v1h-1z M22,33h1v1h-1z M25,33h1v1h-1z M26,33h1v1h-1z M28,33h1v1h-1z M29,33h1v1h-1z M30,33h1v1h-1z M31,33h1v1h-1z M34,33h1v1h-1z M35,33h1v1h-1z M36,33h1v1h-1z M37,33h1v1h-1z M39,33h1v1h-1z M41,33h1v1h-1z M42,33h1v1h-1z M43,33h1v1h-1z M46,33h1v1h-1z M5,34h1v1h-1z M7,34h1v1h-1z M10,34h1v1h-1z M11,34h1v1h-1z M12,34h1v1h-1z M14,34h1v1h-1z M15,34h1v1h-1z M16,34h1v1h-1z M17,34h1v1h-1z M19,34h1v1h-1z M22,34h1v1h-1z M23,34h1v1h-1z M25,34h1v1h-1z M26,34h1v1h-1z M30,34h1v1h-1z M31,34h1v1h-1z M32,34h1v1h-1z M34,34h1v1h-1z M37,34h1v1h-1z M40,34h1v1h-1z M43,34h1v1h-1z M44,34h1v1h-1z M47,34h1v1h-1z M4,35h1v1h-1z M6,35h1v1h-1z M7,35h1v1h-1z M8,35h1v1h-1z M9,35h1v1h-1z M16,35h1v1h-1z M18,35h1v1h-1z M20,35h1v1h-1z M21,35h1v1h-1z M24,35h1v1h-1z M26,35h1v1h-1z M27,35h1v1h-1z M28,35h1v1h-1z M29,35h1v1h-1z M30,35h1v1h-1z M32,35h1v1h-1z M33,35h1v1h-1z M36,35h1v1h-1z M41,35h1v1h-1z M42,35h1v1h-1z M44,35h1v1h-1z M45,35h1v1h-1z M47,35h1v1h-1z M7,36h1v1h-1z M9,36h1v1h-1z M10,36h1v1h-1z M11,36h1v1h-1z M12,36h1v1h-1z M14,36h1v1h-1z M17,36h1v1h-1z M23,36h1v1h-1z M26,36h1v1h-1z M28,36h1v1h-1z M32,36h1v1h-1z M33,36h1v1h-1z M34,36h1v1h-1z M36,36h1v1h-1z M38,36h1v1h-1z M40,36h1v1h-1z M41,36h1v1h-1z M42,36h1v1h-1z M43,36h1v1h-1z M44,36h1v1h-1z M48,36h1v1h-1z M6,37h1v1h-1z M8,37h1v1h-1z M11,37h1v1h-1z M12,37h1v1h-1z M13,37h1v1h-1z M15,37h1v1h-1z M17,37h1v1h-1z M19,37h1v1h-1z M21,37h1v1h-1z M22,37h1v1h-1z M25,37h1v1h-1z M28,37h1v1h-1z M29,37h1v1h-1z M30,37h1v1h-1z M33,37h1v1h-1z M34,37h1v1h-1z M36,37h1v1h-1z M37,37h1v1h-1z M39,37h1v1h-1z M40,37h1v1h-1z M45,37h1v1h-1z M46,37h1v1h-1z M47,37h1v1h-1z M8,38h1v1h-1z M10,38h1v1h-1z M12,38h1v1h-1z M14,38h1v1h-1z M17,38h1v1h-1z M18,38h1v1h-1z M19,38h1v1h-1z M20,38h1v1h-1z M21,38h1v1h-1z M22,38h1v1h-1z M23,38h1v1h-1z M25,38h1v1h-1z M27,38h1v1h-1z M28,38h1v1h-1z M30,38h1v1h-1z M33,38h1v1h-1z M35,38h1v1h-1z M37,38h1v1h-1z M39,38h1v1h-1z M44,38h1v1h-1z M45,38h1v1h-1z M47,38h1v1h-1z M5,39h1v1h-1z M6,39h1v1h-1z M7,39h1v1h-1z M8,39h1v1h-1z M11,39h1v1h-1z M12,39h1v1h-1z M17,39h1v1h-1z M20,39h1v1h-1z M21,39h1v1h-1z M23,39h1v1h-1z M24,39h1v1h-1z M25,39h1v1h-1z M28,39h1v1h-1z M30,39h1v1h-1z M32,39h1v1h-1z M36,39h1v1h-1z M42,39h1v1h-1z M4,40h1v1h-1z M7,40h1v1h-1z M8,40h1v1h-1z M10,40h1v1h-1z M13,40h1v1h-1z M14,40h1v1h-1z M16,40h1v1h-1z M19,40h1v1h-1z M20,40h1v1h-1z M22,40h1v1h-1z M23,40h1v1h-1z M24,40h1v1h-1z M25,40h1v1h-1z M26,40h1v1h-1z M27,40h1v1h-1z M28,40h1v1h-1z M30,40h1v1h-1z M34,40h1v1h-1z M36,40h1v1h-1z M37,40h1v1h-1z M38,40h1v1h-1z M40,40h1v1h-1z M41,40h1v1h-1z M42,40h1v1h-1z M43,40h1v1h-1z M44,40h1v1h-1z M45,40h1v1h-1z M48,40h1v1h-1z M12,41h1v1h-1z M14,41h1v1h-1z M18,41h1v1h-1z M20,41h1v1h-1z M21,41h1v1h-1z M22,41h1v1h-1z M24,41h1v1h-1z M28,41h1v1h-1z M29,41h1v1h-1z M30,41h1v1h-1z M31,41h1v1h-1z M33,41h1v1h-1z M36,41h1v1h-1z M37,41h1v1h-1z M40,41h1v1h-1z M44,41h1v1h-1z M45,41h1v1h-1z M46,41h1v1h-1z M47,41h1v1h-1z M4,42h1v1h-1z M5,42h1v1h-1z M6,42h1v1h-1z M7,42h1v1h-1z M8,42h1v1h-1z M9,42h1v1h-1z M10,42h1v1h-1z M12,42h1v1h-1z M13,42h1v1h-1z M14,42h1v1h-1z M15,42h1v1h-1z M18,42h1v1h-1z M19,42h1v1h-1z M24,42h1v1h-1z M26,42h1v1h-1z M28,42h1v1h-1z M30,42h1v1h-1z M31,42h1v1h-1z M32,42h1v1h-1z M36,42h1v1h-1z M39,42h1v1h-1z M40,42h1v1h-1z M42,42h1v1h-1z M44,42h1v1h-1z M47,42h1v1h-1z M4,43h1v1h-1z M10,43h1v1h-1z M12,43h1v1h-1z M13,43h1v1h-1z M14,43h1v1h-1z M17,43h1v1h-1z M20,43h1v1h-1z M22,43h1v1h-1z M23,43h1v1h-1z M24,43h1v1h-1z M28,43h1v1h-1z M30,43h1v1h-1z M32,43h1v1h-1z M34,43h1v1h-1z M35,43h1v1h-1z M36,43h1v1h-1z M37,43h1v1h-1z M38,43h1v1h-1z M40,43h1v1h-1z M44,43h1v1h-1z M48,43h1v1h-1z M4,44h1v1h-1z M6,44h1v1h-1z M7,44h1v1h-1z M8,44h1v1h-1z M10,44h1v1h-1z M12,44h1v1h-1z M13,44h1v1h-1z M14,44h1v1h-1z M15,44h1v1h-1z M20,44h1v1h-1z M24,44h1v1h-1z M25,44h1v1h-1z M26,44h1v1h-1z M27,44h1v1h-1z M28,44h1v1h-1z M29,44h1v1h-1z M30,44h1v1h-1z M33,44h1v1h-1z M34,44h1v1h-1z M36,44h1v1h-1z M38,44h1v1h-1z M40,44h1v1h-1z M41,44h1v1h-1z M42,44h1v1h-1z M43,44h1v1h-1z M44,44h1v1h-1z M4,45h1v1h-1z M6,45h1v1h-1z M7,45h1v1h-1z M8,45h1v1h-1z M10,45h1v1h-1z M16,45h1v1h-1z M17,45h1v1h-1z M18,45h1v1h-1z M19,45h1v1h-1z M21,45h1v1h-1z M22,45h1v1h-1z M23,45h1v1h-1z M27,45h1v1h-1z M28,45h1v1h-1z M30,45h1v1h-1z M33,45h1v1h-1z M41,45h1v1h-1z M42,45h1v1h-1z M43,45h1v1h-1z M44,45h1v1h-1z M45,45h1v1h-1z M46,45h1v1h-1z M4,46h1v1h-1z M6,46h1v1h-1z M7,46h1v1h-1z M8,46h1v1h-1z M10,46h1v1h-1z M14,46h1v1h-1z M15,46h1v1h-1z M16,46h1v1h-1z M17,46h1v1h-1z M20,46h1v1h-1z M21,46h1v1h-1z M22,46h1v1h-1z M23,46h1v1h-1z M26,46h1v1h-1z M27,46h1v1h-1z M30,46h1v1h-1z M31,46h1v1h-1z M34,46h1v1h-1z M35,46h1v1h-1z M36,46h1v1h-1z M41,46h1v1h-1z M42,46h1v1h-1z M43,46h1v1h-1z M44,46h1v1h-1z M45,46h1v1h-1z M46,46h1v1h-1z M4,47h1v1h-1z M10,47h1v1h-1z M18,47h1v1h-1z M21,47h1v1h-1z M25,47h1v1h-1z M26,47h1v1h-1z M27,47h1v1h-1z M28,47h1v1h-1z M30,47h1v1h-1z M32,47h1v1h-1z M33,47h1v1h-1z M35,47h1v1h-1z M36,47h1v1h-1z M37,47h1v1h-1z M44,47h1v1h-1z M4,48h1v1h-1z M5,48h1v1h-1z M6,48h1v1h-1z M7,48h1v1h-1z M8,48h1v1h-1z M9,48h1v1h-1z M10,48h1v1h-1z M13,48h1v1h-1z M16,48h1v1h-1z M17,48h1v1h-1z M19,48h1v1h-1z M21,48h1v1h-1z M24,48h1v1h-1z M25,48h1v1h-1z M28,48h1v1h-1z M35,48h1v1h-1z M36,48h1v1h-1z M37,48h1v1h-1z M40,48h1v1h-1z M43,48h1v1h-1z M44,48h1v1h-1z M48,48h1v1h-1z" fill="#0f384f"/>
</svg>
