<svg xmlns="http://www.w3.org/2000/svg" data-name="Calque 1" viewBox="0 0 226.77 226.77"><path d="M164.93 58.64c-2.49 24.98-21.15 49.52-31.43 71.78 1.9 16.95 2.61 33.91 2.19 50.99 1.44.34 1.49-.48 2.18-1.28 5.92-6.86 16.21-21.69 21.23-29.57 11.42-17.92 16.91-39.53 13.53-60.73 2.66.6 11.32-2.89 12.75-.82 1.87 20.14-3.32 40.76-13.67 58-10.59 17.66-33.36 34.55-36.01 55.58-1.16 9.19 2.23 11.35-9.16 6.05-18.04-8.39-37.95-25.7-45.88-44.18-6.71-15.65-6.04-39.05-26.23-43.81-.25-2.98-.71-11.87 2.93-11.47 9.81 1.08 20.06 12.39 23.69 21.02 7.19 17.13 4.41 31.61 17.37 48.06.67.85 4.75 6.45 5.7 5.45-2.2-6.11-4.86-12.24-5.41-18.83-1.23-14.61 6.06-27.47 4.64-41.58S86.53 95.77 78.41 84.36c-1.29-1.81-7.07-10.64-7.28-12.03-.49-3.2 8.82-5.23 11.48-5.28 6.79 16.85 23.12 29.36 28.67 46.8 8.16 25.66-15.08 41.98 1.19 71.16.6 1.07 7.03 11.07 8.6 9.48-9.74-21.03-4.91-44.69 3.69-65.2-4.29-37.47-31.03-64.75-43.72-98.72l10.41-3.07c1.12 0 1.69.73 2.25 1.57 1.86 2.81 4.1 11.01 5.92 14.86 10.99 23.14 26.73 44.49 30.69 70.54 1.8.38 1.23-.24 1.72-.99 4.21-6.51 9.48-18.58 12.49-25.97 2.31-5.67 8.11-21.08 8.11-26.53V42.12l12.31-.77c-.4 5.58.55 11.83 0 17.32Zm-36.95 89.67c-2.14-2.46-4.23 9.77-4.37 10.63-2.19 13.31-1.61 29.76 6.68 40.94l-2.31-51.56Z" style="fill:#0f384f"/></svg>