<svg xmlns="http://www.w3.org/2000/svg" id="Calque_1" data-name="Calque 1" viewBox="0 0 226.77 226.77"><defs><style>.cls-1{fill:#0f384f}</style></defs><path d="M78.61 204.82c0 .22-.58.75-.63 1.34l1.27.94c3.17-10.99 12.42-22.29 23.15-26.76 5.41-2.26 11.01-2.19 16.69-2.31l.63 1.37c-2 15.94-18.04 31.74-33.39 35.11-18.88 4.14-42.48-6.93-49.32-25.5-4.05-10.99-1.73-12.06 9.27-9.27 11.46 2.91 18.21 9.08 23.96 19.1.53.92 3.1 8.3 4.46 6.95l-.09-24.04c-20.78-1.97-36.08-14.67-36.31-36.46l.95-1.37c18.01-1.87 31.38 12.41 34.15 29.25l1.3-.98v-23.48c0-.18-1.01-.68-.04-1.33l2.33-.37 1.62 1.69v22.18c0 .18-.92.88-.65 1.63.89.18 1.08-.03 1.58-.69.95-1.25 2.67-6.83 3.95-9.1 6.65-11.87 20.97-18.88 34.3-15.92-.13 20.92-19.74 34.18-39.18 34.85-.15 7.7.2 15.45 0 23.16Z" class="cls-1"/><path d="M78.46 139.26c0 .22-.58.75-.63 1.34l1.27.94c3.17-10.99 12.42-22.29 23.15-26.76 5.41-2.26 11.01-2.19 16.69-2.31l.63 1.37c-2 15.94-18.04 31.74-33.39 35.11-18.88 4.14-42.48-6.93-49.32-25.5-4.05-10.99-1.73-12.06 9.27-9.27 11.46 2.91 18.21 9.08 23.96 19.1.53.92 3.1 8.3 4.46 6.95l-.09-24.04c-20.78-1.97-36.08-14.67-36.31-36.46l.95-1.37c18.01-1.87 31.38 12.41 34.15 29.25l1.3-.98V83.15c0-.18-1.01-.68-.04-1.33l2.33-.37 1.62 1.69v22.18c0 .18-.92.88-.65 1.63.89.18 1.08-.03 1.58-.69.95-1.25 2.67-6.83 3.95-9.1 6.65-11.87 20.97-18.88 34.3-15.92-.13 20.92-19.74 34.18-39.18 34.85-.15 7.7.2 15.45 0 23.16Z" class="cls-1"/><path d="M79.63 73.15c0 .22-.58.75-.63 1.34l1.27.94c3.17-10.99 12.42-22.29 23.15-26.76 5.41-2.26 11.01-2.19 16.69-2.31l.63 1.37c-2 15.94-18.04 31.74-33.39 35.11-18.88 4.14-42.48-6.93-49.32-25.5-4.05-10.99-1.73-12.06 9.27-9.27 11.46 2.91 18.21 9.08 23.96 19.1.53.92 3.1 8.3 4.46 6.95l-.09-24.04c-20.78-1.97-36.08-14.67-36.31-36.46l.95-1.37c18.01-1.87 31.38 12.41 34.15 29.25l1.3-.98V17.04c0-.18-1.01-.68-.04-1.33l2.33-.37 1.62 1.69v22.18c0 .18-.92.88-.65 1.63.89.18 1.08-.03 1.58-.69.95-1.25 2.67-6.83 3.95-9.1 6.65-11.87 20.97-18.88 34.3-15.92-.13 20.92-19.74 34.18-39.18 34.85-.15 7.7.2 15.45 0 23.16Z" class="cls-1"/></svg>