<svg xmlns="http://www.w3.org/2000/svg" data-name="Calque 1" viewBox="0 0 226.77 226.77"><path d="M51.21 63.52c.41 4.48 2.59 13.84 3.69 18.71 5.6 24.89 18.53 50.47 38.1 67.15l-17.69-32.32c-5.2-14.31-11.53-28.55-14.7-43.53-2.33-11-5.52-21.15 10-21.21.12 22.8 6.55 45.61 17.15 65.73 3.18 6.04 7.12 14.16 12.71 17.89-9.56-30.12-20.04-60.22-23.92-91.84.55-5.22 10.22-7.42 12.69-2.18 4.59 26.8 9.75 54.41 18.31 80.23.61 1.83 1.11 6.3 3.37 6.31-5.51-33.03-12.32-66.47-8.95-100.04l11.35 1.36 8.06 103.95 2.98 2.2c-.59-30.08.8-60.3.07-90.39-.12-5.03-4.64-16.36 1.42-19.36 8.02-3.96 9.51 2.77 10.29 9.15 3.86 31.74-.79 70.56-2.87 102.79-.13 1.98-1.1 9.33 1.54 9.76 13.51-35.3 12.8-72.46 10.5-109.71 1.14-5.9 12.33-11.18 13.48-1.6 2.26 18.86-.9 39.2-.09 58.29l-8.2 51.52c19.85-30.86 26.6-68.13 24.65-104.52l11.25 2.93c3.94 34.28-3.7 69.22-20.47 99.09-2.04 3.63-8.97 10.96-10.18 13.72-2.67 6.06 9.95-2.83 11.15-3.79 29.05-23 29-71 33.93-104.93 13.14-14.73 10.68 13.68 10.14 22.08-2.96 45.8-21.9 107.39-79.13 100.8l-3.19 45.34c-1.15 3.66-10.99 3.32-12.58 1.05-3-4.3 1.45-39.37-2.16-47.86-57.65 4.15-91.7-46.05-98.64-97.6l10.62-3.33c6.26 24.06 13.24 45.29 29.76 64.37 2.23 2.58 20 20.78 22.44 18.61-27.75-30.79-42.8-70.28-44.61-111.78 5.77-3.06 11.2-3.78 17.73-3.18.56 8.47-.77 17.77 0 26.13Z" style="fill:#68aaaf"/></svg>