<svg xmlns="http://www.w3.org/2000/svg" data-name="Calque 1" viewBox="0 0 226.77 226.77"><path d="M139.99 8.86c.18 1.51.39 3.03.75 4.5 2.85 11.67 12.79 17.09 11.91 30.77-1.33 20.53-26.7 28.78-28.09 46.94-.2 2.57.12 5.17.22 7.71.09 2.25.17 4.51.21 6.76.59.1.36-.12.48-.47 3.13-8.89 5.61-15.31 12.05-22.47 6.03-6.7 14.17-11.14 19.06-18.88 2.63-4.16 4.27-8.97 4.41-13.92 1.1 1.1 1.74 2.8 2.3 4.23 4.73 12.04 3.72 24.89-4.98 34.79-9.18 10.44-25.57 13.58-31.78 27.18-1.68 3.68-.6 8.55-.48 12.58.06 2.04-.06 4.08 0 6.12 1.16-1.47 1.77-3.45 2.67-5.15 3.93-7.4 9.22-13.96 15.78-19.16 10.43-8.26 21.15-11.3 28.58-23.51 1.6-2.64 2.6-5.34 3.88-8.13 2.48 11.04.64 22.92-6.03 32.13-10.58 14.62-28.09 15.62-40.92 27.04-.78.69-3.4 3.14-3.53 3.97-.23 1.42.17 2.92.21 4.27.14 4.47.26 8.94.42 13.41l4.24-6.59c9.56-13.37 20.52-16.91 34.36-23.95 8.95-4.56 16.45-10.47 22.72-18.34v1.07c-.62 2.56-.95 5.19-1.56 7.76-3.65 15.3-12.97 31.54-28.18 37.64-8.68 3.48-18.44 2.38-26.41 7.46-1.33.85-4.95 3.51-4.95 5.13v10.5s-.41.29-.11.32h.32c4.24-6.45 12.11-9.54 19.47-10.87 6.32-1.14 12.54-.7 18.55-3.31 4.51-1.96 8.37-5.42 11.18-9.4.12 9.01-4.82 18.12-13.04 22.12-11.72 5.7-28.54-1.15-36.76 10.4-2.2 3.09-2.18 5.21-3.15 8.64-1.99 7.08-4.27 14.05-7.18 20.79h-.43c-1.45-.67-3.11-.81-4.62-1.28-.24-.07-.38.15-.32-.33 4.32-8.48 6.7-17.88 7.72-27.33-5.36 1.13-10.75 1.24-16.08-.11-10.81-2.73-18.11-11.9-22.29-21.76 13.55 4.26 29.28 5.92 38.7 17.79.48.09.3-.21.32-.53.15-2.15.37-4.52.44-6.64.03-.9.08-1.72-.24-2.56-1.38-3.52-6.44-7.78-9.7-9.6-7.46-4.16-15.83-4.16-23.44-7.43-13.33-5.72-21.29-19.31-23.59-33.22l-.71-5.4v-3.86c3.18 3.44 5.95 6.83 9.67 9.73 15.24 11.91 35.4 11.68 45.04 30.85.92 1.83 1.47 3.8 2.26 5.67.11.26.12.63.49.69l-.22-17.03c-3.39-5.8-9.31-10.47-15.01-13.93-7.82-4.74-17.23-6.86-23.67-13.63-10.62-11.16-10.53-28.2-5.2-41.86l1.45-3.16c1.2 7.76 3.47 15.28 7.89 21.81 6.44 9.52 16.53 15.08 23.96 23.64 4.28 4.93 6.97 9.49 9.69 15.4.14.3-.13.58.48.47-.35-2.45-.14-4.93-.2-7.4-.06-2.6.05-6.34-.22-8.78-.19-1.65-1.84-3.76-2.83-5.11-5.62-7.69-13.85-13.04-19.3-21-9.42-13.75-8.4-28.39-1.92-43.18l2.39-4.57c-4.09 23.47 8.78 44.4 21.44 62.81l.42-20.25c-1.69-3.16-3.67-6.15-5.17-9.41-12.24-26.51.08-47.15 19.97-64.57 1.96-1.72 4.13-3.22 6.01-5.03h.21Z" style="fill:#68aaaf"/></svg>