<svg xmlns="http://www.w3.org/2000/svg" data-name="Calque 1" viewBox="0 0 226.77 226.77"><path d="M164.74 119.71c3.72 3.36 15 .75 14.71 9.34-.4 11.78-16.49 4.02-23.22 3.44-19.8-1.7-34.42 16.71-36.95 34.83-.44 3.15-.71 6.05.14 9.17 2.75 10.03 16.55 8.06 13.98-4.54-1.02-4.99-7.76-9.18-4.84-15.12 2.03-4.14 8.07-4.15 10.08 0 1.53 3.16.02 8.96 5.1 9.73 7.45 1.13 8.28-5.75 7.83-11.42-.28-3.47-2.1-6.28-.75-9.76 1.25-3.24 5.78-4.72 8.56-2.55 4.59 3.58-1.98 13.17 6.33 13.89 8.7.75 13.76-7.01 16.43-14.17 2.05-5.48 2.87-18.82 12.13-14.84 7.94 3.41-1.36 11.95-1.72 16.29-.17 2.03 1.41 3.56 3.43 3.42 5.15-.33 17.81-9.29 20.4-.49 2.95 10.01-11.08 8.78-16.94 9.32-2.41.22-6.17 1.13-6.06 4.22.22 5.75 12.54 7.11 9.45 14.91-3.6 9.1-17.97-1.27-23.1-3.48-4.38-1.89-14.21-4.01-17.84-.16-4.92 5.22 5.68 8.35 4.88 12.93-1.2 6.86-11.16 3.86-15.88 3.89-13.57.11-12.36 18.99-23.82 18.95-6.05-.02-8.31-8.49-13.47-9.03-6.02-.63-8.05 6.65-13.73 5.19-6.03-1.55-8.53-13.23-16.05-14.51-14.85-2.53-14.56 16.53-25.17 18.21-6.69 1.06-12.09-3.62-9.05-10.39 2.31-5.16 8.95-6.11 11.87-11.05 2.73-4.63 1.78-9.88-3.59-11.72-13.33-4.58-26.3 13.46-37.12 7.91-5.78-2.96-4.35-11.49 1.58-13.76 3.53-1.35 11.2-1.4 11.91-6.53 1.03-7.46-12.69-10.28-15.03-15.92-2.74-6.59 4.02-13.76 10.87-10.87s15.68 22.31 25.9 28.03c7.87 4.41 19.75 4.14 17.72-7.83-1.83-10.8-18.95-8.45-25.97-14.03-6.11-4.86-3.68-14.03 5.51-12.7 3.36.49 12.96 6.95 12.49-1.23-.63-10.96-21.46-11.61-28.35-14.82-8.26-3.86-4.4-16.47 4.25-15.49 4.25.48 14.47 9.7 17.44 3.88 1.81-3.55-.78-8.22 1.47-12.91 3.48-7.28 13.98-4.67 12.7 5.06-.46 3.5-6.88 15.31-.08 16.49 6.8 1.17 6.25-7.36 11.31-8.4 3.81-.78 7.66 2.07 7.78 5.98.11 3.48-7.37 11.5-9.32 15.85-2.56 5.74-4.93 20.14-.8 25.23 4.51 5.55 9.02-3.99 13.57-4.82 3.35-.61 7.75 1.74 7.76 5.51.04 8.52-16.92 13.08-10.26 22.85 3.73 5.48 8.99 3.57 12.16-1.17 6.24-9.33 6.43-28.36-1.89-36.51-3.62-3.55-15.52-8.51-9.24-15.06 4.82-5.03 10.32 3.8 15.22 1.85 2.23-3.02 1.01-7.8-.02-11.17-2.5-8.2-8.32-14.57-15.08-19.52-3.69-2.7-14.49-7.77-16.14-10.82-1.28-2.37-1.05-5.04.81-7.01 5.83-6.18 12.73 6 17.94 2.21 4.33-3.15.6-16.89 9.88-16.67 9.19.22 2.58 13.51 1.51 18.17-.93 4.07-.89 7.03.28 11.08 3.21 11.15 15.03 7.97 14.11-3.77-.43-5.42-4.13-11.11-4.03-16.68.17-8.96 10.81-11.17 12.94-1.23.6 2.8.08 7.21.67 9.22.19.65 1.51 1.76 2.14 1.94 2.68.75 6.33-3.28 8.69-4.4 6.09-2.89 13.54-1.02 11.89 6.95-1.15 5.56-14.41 7.99-19.18 10.92-8.18 5.02-15.07 18.03-11.37 27.47 2.05 5.22 7.56 4.52 10.06-.02 2.74-4.96 1.67-8.51 2.17-13.56.81-8.15 9.84-7.86 10.16-.83.12 2.56-1.86 12.68 4.01 7.36 4.22-3.83 5.06-15.15 8.12-20.64 4.12-7.38 14.3-6.26 12.11 3.12-.53 2.26-4.7 5.48-2.03 7.36 3.78 2.66 15.1-6.48 18.17.7 5.16 12.06-15.99 7.96-21.21 11.14-2.53 1.54-3.56 5.59-1.34 7.59Z" style="fill:#0f384f"/></svg>