<svg
    xmlns="http://www.w3.org/2000/svg"
    data-name="Calque 1"
    viewBox="0 0 226.77 226.77"
><path
        d="M61.62 220.31c.05-4.02 1.2-8.12 2.91-11.75 4.92-10.49 14.41-15 14.56-28.28.17-15.3-11.14-19.44-15.65-31.76-2.54-6.96-2.7-15.62-.66-22.71 4.35-15.09 18.58-18.88 15.93-37.67-1.48-10.5-10.33-15.91-14.4-25.11-5.05-11.4-3.67-26.81 4.72-36.34 2.54-2.89 6.73-3.34 8.46.43s-2.21 6.92-3.86 10.1c-4.43 8.56-3.08 18.69 2.21 26.45 7.87 11.57 13.83 15.83 12.79 31.69-1.28 19.48-19.12 23.72-17.46 44.1.88 10.83 11.04 17.24 14.97 26.85 3.41 8.35 3.36 18.87-.09 27.21-3.94 9.54-14.09 15.82-14.88 26.78h-9.55Z"
        style="fill:#68aaaf"
    /></svg>
