<svg xmlns="http://www.w3.org/2000/svg" data-name="Calque 1" viewBox="0 0 226.77 226.77"><path d="m77.59 19.77 12.11-4.03c2.83 8.06-8.44 10.7-8.1 16.71.24 4.36 9.06 17.74 13.99 16.78 6.45-3.08 13.13-34.46 18.89-33.43 9.42 1.69-4.65 18.5-3.11 23.32 1.47 4.59 15.77-.77 13.36 6.91-1.55 4.94-15.5-1.96-20.5 6.46-4.3 7.23-3.67 38.9 3.56 44.19 12 8.77 21.24-24.89 28.61-25.54 7.59 2.49.25 10.94-2.19 15.34l8.06 2.02c1.38 10.04-8.17 6.62-14 9.59-.98.5-15.59 12.52-17.05 13.94-8.97 8.7-10.68 33.92-9.39 45.89 1.64 15.24 24.28 1.59 25.58-5.44.98-5.3-2.3-11.88 3.42-15.46 5.18-1.1 2.18 14.06 6.69 12.11 2.42-1.05 12.6-13.33 14.73-16.28 2.62-3.63 15.34-29.72 21-24.14 2.06 12.61-11.88 19.51-13.46 30.98 4.13 2.26 16.38-.32 17.5 4.77 1.49 6.82-20.78 3.98-24.59 5-1.97.52-16.97 10.97-14.47 13.15 4.76-.47 8.7 1.36 8.08 6.73-16.7 2.63-28.35-1.39-42.41 10.83-13.27 11.54-3.72 21.19-8.34 32-1.72 4.02-10.8 4.46-12.31-.64-3.7-12.5 7.93-34.13-14.39-36.82-6.76-.81-23.28 2.29-26.76 1.19-9.55-3.03 6.38-7.44 5.83-9.9-6.24-10.67-14.72-5.54-23.54-8.82-12.93-4.81 3.32-8.66 10.06-6.7 1.61-1.57-11.08-19.15-11.87-23.91-.6-3.65.06-6.31 4.32-5.6l10.92 16.02 6.47-7.14c10.98-.13-1.71 12.16-1.53 14.32.29 3.46 12.67 18.32 16.02 20.41 4.87 3.03 11.59 1.93 17.75 3.81 3.38 1.03 9.76 5.71 12.34 4.94 5.53-1.66 3.56-30.49 2.83-36.28-5.89-7.13-15.95-10.32-22.26-16.82-4.75-4.9-9.94-16.34-15.41-19.63-4.46-2.68-11.18-2.93-16.46-6.45-2.3-1.53-8.03-7.06-2.35-8.28 2.66-.57 15 8.45 15.37 3.32.24-3.28-9.74-16.14-6.69-22.24 9.7-.08 8.6 12.14 14.17 17.52 14.85-13.34 16.36-3.29 4.86 7.68-1.57 5.94 20.27 30.77 26.39 32.52 6.68 1.92 10.77-14.12 13.58-19.12-5.71-10.28-8.22-18.34-19.91-23.11 2.36-3.49 5.44-3.72 9.41-3.37 3.07-22.69-3.93-25.37-22.9-32.36l1.34-3.36L76.25 42c-3.04-12.04-11.53-23.04-6.4-36.01C74.66-6.15 80.04 14 77.58 19.78Z" style="fill:#0f384f"/></svg>