<svg xmlns="http://www.w3.org/2000/svg" id="Calque_1" data-name="Calque 1" viewBox="0 0 226.77 226.77"><defs><style>.cls-2{fill:none;stroke:#0f384f;stroke-miterlimit:10;stroke-width:4.43px}</style></defs><path d="m120.07 73.9.35 75.91c.03 6.3 2.8 12.27 7.6 16.35l3.13 2.66m-74.49-93.3v113.51m22.15-114.3-.79 134.48m22.55-134.1-.4 113.91" class="cls-2"/><path d="M129.7 76.32 31.65 77.6c-8.55.11-12.69-12.13-6.37-18.84l15.96-22.3c17.89-22.88 57.58-25.19 78.34.88l16.54 22.52c4.73 6.43.86 16.36-6.41 16.46Z" style="fill:#68aaaf"/><path d="m36.77 76.5-1.06 75.03c-.08 6-2.01 11.83-5.51 16.71l-3.72 5.17" class="cls-2"/></svg>