<svg xmlns="http://www.w3.org/2000/svg" data-name="Calque 1" viewBox="0 0 226.77 226.77"><path d="M115.54 33c-11.18 8.65-21.47 21.41-20.22 36.41 1.06 12.64 9.93 20.42 17.85 29.3 6.94 7.78 9.69 17.08 6.72 26.12-1.57 4.8-4.04 9.49-6.24 14.99-2.65 6.64-4.21 13.43-5.06 20.52-2.12 17.71 2.02 35.24 9.31 51.3 2.11 4.66 8.86 5.79 12.95 3.4 4.79-2.8 5.52-8.28 3.4-12.95-5.35-11.78-8.08-25.22-7.06-38.41.92-11.86 6.26-21.12 10.28-31.89 4.25-11.39 3.19-23.71-2.31-34.51-2.56-5.03-6.29-9.5-10.13-13.62-3.14-3.37-7.02-7.07-8.87-10.05-1.31-2.11-1.74-3.02-2-4.93-.21-1.58.23-4.86 1.09-6.98 2.57-6.36 8.41-11.22 13.68-15.3 4.05-3.13 3.29-10.1 0-13.39-3.99-3.99-9.33-3.14-13.39 0Z" style="fill:#0f384f"/><path d="M106.44 44.91a35.4 35.4 0 0 0-5.76 8.74 35.9 35.9 0 0 0-3.06 10.82c4.8 1.57 9.59 3.15 14.39 4.72-.03-1.9.15-5.07 1.56-8.65 1.51-3.85 3.75-6.41 5.13-7.78l-12.27-7.86Zm-3.12 39.55a55.9 55.9 0 0 0 17.23-2.37c1.69 1.7 3.44 3.58 5.2 5.65 2.3 2.7 4.28 5.34 5.98 7.82a16.8 16.8 0 0 1-4.39 4.39c-3.33 2.28-6.66 2.76-8.3 2.89-4.88-5.62-9.74-11.29-14.58-17.02l-1.14-1.35Zm20 30.04c1.76.3 3.97.52 6.49.42 3.17-.13 5.83-.72 7.82-1.32.22 2.11.31 4.65.06 7.52-.35 4.01-1.27 7.35-2.16 9.86-1.97 1.04-4.64 2.2-7.94 3.01-3.78.92-7.08 1.05-9.5.96.32-.7.75-1.66 1.26-2.83.4-.92.71-1.63.77-1.76 2.38-5.55 3-11.49 3-11.49.11-1.03.22-2.53.2-4.37m-9.41 31.11c-.99 3.04-1.92 6.62-2.59 10.67-.53 3.27-.8 6.29-.9 8.99 1.94.42 4.56.78 7.67.63 2.73-.13 5.04-.63 6.79-1.14.19-2.6.56-5.53 1.23-8.72.58-2.74 1.28-5.21 2.01-7.4-2.27-.17-4.88-.51-7.73-1.14-2.43-.54-4.6-1.21-6.49-1.89Zm-3.01 34.28c1.93.65 4.44 1.31 7.43 1.62 2.87.3 5.37.19 7.34-.03.47 2.45 1.05 5.04 1.77 7.76.74 2.78 1.55 5.38 2.38 7.79-1.65.91-4.04 2-7.07 2.68-2.83.63-5.29.69-7.1.6a90 90 0 0 1-3.07-10.46c-.82-3.59-1.35-6.93-1.68-9.95Z" style="fill:#68aaaf"/><circle cx="120.42" cy="39.08" r="2.52" style="fill:#fff"/></svg>