<svg xmlns="http://www.w3.org/2000/svg" id="Calque_1" data-name="Calque 1" viewBox="0 0 226.77 226.77"><defs><style>.cls-1{fill:#c25c17}.cls-2{fill:none;stroke:#1d1d1b;stroke-miterlimit:10;stroke-width:1.82px}.cls-4{fill:#e4a411}</style></defs><path d="M58.76 56.75H37.47c-6.16-1.08-10.73-6.35-10.91-12.46-.19-6.39 4.46-12.11 10.91-13.24h105.66c4.87 0 9.7.82 14.26 2.51a81 81 0 0 1 16.93 8.65c13.43 9 21.09 19.98 24.93 26.49" class="cls-2"/><path d="M66.37 66.17H46.95c-5.62-.99-9.78-5.79-9.95-11.37-.17-5.83 4.07-11.04 9.95-12.08h96.37c4.44 0 8.84.75 13.01 2.29 4.64 1.72 9.97 4.23 15.44 7.89 12.25 8.21 19.23 18.22 22.74 24.16m-70.44 25.13H90.18l-9.8 9.81m45.23-1.74H91.72l-9.8 9.81m66.42-3.19h-33.89l-9.81 9.81" class="cls-2"/><path d="M151.84 122.21h-33.89l-9.8 9.8" class="cls-2"/><path d="M154.83 128.18h-33.89l-9.8 9.8" class="cls-2"/><path d="M187.81 117.66c0 35.49-28.77 64.26-64.3 64.26-.6 0-1.19 0-1.79-.06v-.41c-6.18-2.01-13.24-4.93-20.65-9.1-16.07-9.07-26.89-20.3-33.54-28.62h54.19v-42.68c-7.78-2.51-16.69-6.15-26.04-11.45-7.84-4.42-14.69-9.26-20.62-14.15-9.41-7.69-16.51-15.5-21.65-21.87h68.31v-.16c.6-.06 1.19-.06 1.79-.06 35.52 0 64.3 28.77 64.3 64.3" class="cls-1"/><circle cx="105.57" cy="67.4" r="3.77" style="fill:#1d1d1b"/><path d="m67.54 143.73-15.53-39.2-23.63 24.15z" class="cls-4"/><path d="M121.96 51.95v129.58c3.91.09 32.39.27 52.22-22.38 15.81-18.06 15.79-38.84 15.64-43.99-.4-4.83-2.92-29.24-24.47-47.1-17.67-14.65-37.34-15.94-43.39-16.11" class="cls-1"/><path d="m121.8 117.45 46.65-46.65c-4.54-4.29-12.77-10.92-24.83-15.09a68.9 68.9 0 0 0-21.65-3.77c-.05 21.84-.11 43.67-.16 65.51Zm-.06.15 51.91 43.27c4.18-4.83 10.57-13.51 14.12-25.84 2.54-8.8 2.78-16.48 2.49-21.87z" class="cls-4"/></svg>