<svg xmlns="http://www.w3.org/2000/svg" id="Calque_1" data-name="Calque 1" viewBox="0 0 226.77 226.77"><defs><style>.cls-2{fill:#68aaaf}.cls-5{fill:#0f384f}</style></defs><path d="M119.37 138.85c-8.67-1.53-17.49-2.04-26.26-1.25-7.15.65-14.34 2.07-21.27 3.95-6.55 1.78-13.68 4.62-17.07 10.93-1.96 3.64-2.24 7.66-1.71 11.69.44 3.34 1.56 6.83 1.15 10.23-1.07 8.82-13.32 8.51-19.79 7.95-2.34-.2-2.33 3.46 0 3.66 6.8.58 15.9.61 20.74-5.12 5.18-6.14 1.17-13.55 1.28-20.55.11-7.51 5.98-11.81 12.49-14.07 3.77-1.31 7.69-2.17 11.6-2.98 3.14-.65 6.28-1.29 9.46-1.69 9.44-1.18 19.04-.87 28.4.78 2.3.41 3.29-3.12.97-3.52Z" class="cls-5"/><path d="M103.16 124.81c-8.67-1.53-17.49-2.04-26.26-1.25-7.15.65-14.34 2.07-21.27 3.95-6.55 1.78-13.68 4.62-17.07 10.93-1.96 3.64-2.24 7.66-1.71 11.69.44 3.34 1.56 6.83 1.15 10.23-1.07 8.82-13.32 8.51-19.79 7.95-2.34-.2-2.33 3.46 0 3.66 6.8.58 15.9.61 20.74-5.12 5.18-6.14 1.17-13.55 1.28-20.55.11-7.51 5.98-11.81 12.49-14.07 3.77-1.31 7.69-2.17 11.6-2.98 3.14-.65 6.28-1.29 9.46-1.69 9.44-1.18 19.04-.87 28.4.78 2.3.41 3.29-3.12.97-3.52Z" class="cls-5"/><path d="M111.39 130.79c-8.67-1.53-17.49-2.04-26.26-1.25-7.15.65-14.34 2.07-21.27 3.95-6.55 1.78-13.68 4.62-17.07 10.93-1.96 3.64-2.24 7.66-1.71 11.69.44 3.34 1.56 6.83 1.15 10.23-1.07 8.82-13.32 8.51-19.79 7.95-2.34-.2-2.33 3.46 0 3.66 6.8.58 15.9.61 20.74-5.12 5.18-6.14 1.17-13.55 1.28-20.55.11-7.51 5.98-11.81 12.49-14.07 3.77-1.31 7.69-2.17 11.6-2.98 3.14-.65 6.28-1.29 9.46-1.69 9.44-1.18 19.04-.87 28.4.78 2.3.41 3.29-3.12.97-3.52Z" class="cls-5"/><path d="m87.42 119.8-.73.55-16.88 12.77c-5.76 4.36-7.22 12.4-3.36 18.51 4.42 6.99 9.27 14.77 8.87 14.64-.73-.24 79.38-40.18 79.38-40.18l-19.12-9.68z" class="cls-5"/><path d="M143.33 203.29c-11.1-.93-29.94-3.99-50.1-15.24-15.12-8.44-25.61-18.49-32.19-25.9 15.87-4 30.74-10.65 45.98-18.88 12.91-6.97 26.67-19.62 37.51-21.3-.4 19.36-.81 61.95-1.21 81.31Z" class="cls-2"/><path d="M228.64 137.04c0 47.62-38.6 86.22-86.22 86.22h-.54V50.83h.54c47.62 0 86.22 38.6 86.22 86.22Z" style="fill:none"/><path d="M143.33 76.16v127.12c34.92-.21 69.94-29.64 69.94-64.61s-35.02-62.3-69.94-62.51" class="cls-2"/><path d="M143.33 76.16 61.28 122.7h93.86c4.43 0 7.38-4.59 5.54-8.62z" class="cls-2"/><circle cx="101.19" cy="132.62" r="5.66"/><circle cx="101.24" cy="132.63" r="2.54" style="fill:#fff"/><path d="M101.31 133.68v4.63" style="fill:none;stroke:#fff;stroke-miterlimit:10;stroke-width:.73px"/><path d="m146.39 73.81-78 44.24h89.24c4.22 0 7.02-4.36 5.26-8.2l-16.5-36.05Zm60.9 89.07-48.06-25.61 53.95-2.23c.33 3.4.43 8.19-.67 13.76a47.5 47.5 0 0 1-5.22 14.09Zm-4.12-54.49-40.84 21.21 24.27-38.65a40 40 0 0 1 9.26 7.05 40 40 0 0 1 7.31 10.38Z" class="cls-5"/></svg>