<svg xmlns="http://www.w3.org/2000/svg" id="Calque_1" data-name="Calque 1" viewBox="0 0 226.77 226.77"><defs><style>.cls-2{fill:#0f384f}</style></defs><path d="m166.54 177.98 12.04-11.23 7.02 14.05m-110.03 3.95 13.62 9.26-12.15 9.95m8.57-137.73-15.67 5.05-.38-15.7m83.06 6.76-16.02-3.81 7.82-13.62m-81.08 77.32L22.08 70.56v91.59z" class="cls-2"/><circle cx="117.6" cy="126.85" r="75.91" style="fill:#68aaaf"/><path d="m102.93 74.25 5.36-14.76 11.08 15.77zm-19.57 34.83-15.3 6.1-1.43-15.64m101.26-6.27-16.03-3.81 7.82-13.62m-30.3 93.49 16.36-1.84-2.75 15.46m-74.97-36.18 13.63 9.25-12.15 9.96" class="cls-2"/><circle cx="167.91" cy="119.48" r="8.21"/></svg>