<svg xmlns="http://www.w3.org/2000/svg" id="Calque_1" data-name="Calque 1" viewBox="0 0 226.77 226.77"><defs><style>.cls-1{fill:#c25c17}.cls-2{fill:#1d1d1b}.cls-3{fill:#e4a411}</style></defs><path d="M178.28 164.09c-2.09-.78-4.93-2.24-6.77-5.11-1.91-2.97-1.19-5.04-3.25-6.74-2.78-2.3-5.78.08-8.19-1.96-3.09-2.61-.12-8.11-2.74-10-2.85-2.06-7.53 3.64-12.25 1.77-4.25-1.68-3.19-7.37-7.25-8.87-4.48-1.65-7.63 4.6-13.38 3.55-5.58-1.03-6.39-7.62-10.64-7.46-4.49.17-5.18 7.57-10.32 8.27-5.07.69-8.1-6-11.92-4.64-3.39 1.21-2.81 7.1-6.13 7.87-2.77.64-4.2-3.23-7.16-2.85-4.13.53-3.53 8.37-9.12 11.08-4.62 2.24-8.67-1.36-11.45 1.45-2.16 2.19-.49 5.16-3.06 7.09-1.81 1.36-3.52.54-5.96 2.31-1.33.96-2.13 2.15-2.58 2.97 4.52 6.35 15.07 19.35 33.53 27.73 14.68 6.67 27.96 7.51 35.47 7.42 7.64-.54 21.34-2.5 36.11-10.64a87.7 87.7 0 0 0 27.08-23.21Zm0 0 28.19-14.68c5.07-2.64 7.77-8.32 6.61-13.91l-4.17-20.21z" class="cls-1"/><path d="m46.57 163.22-28.19-14.68a12.76 12.76 0 0 1-6.61-13.91l4.17-20.21" class="cls-1"/><path d="m178.28 164.09 15.15-46.22-15.79 8.6a13.34 13.34 0 0 0-6.33 15.77l6.97 21.86ZM31.34 116.36l15.79 8.6a13.34 13.34 0 0 1 6.33 15.77l-6.97 21.86m129.86 1.82 12.57-.12-13.86 39.66z" class="cls-3"/><path d="m163.11 205.24.99-30.41 9.67-.09" class="cls-1"/><path d="m48.67 162.96-12.58-.12 13.87 39.66z" class="cls-3"/><path d="m63.83 207.92-.99-30.41-9.67-.09" class="cls-1"/><circle cx="128.68" cy="167.47" r="3.98" class="cls-2"/><circle cx="101.47" cy="167.36" r="3.98" class="cls-2"/></svg>