<svg xmlns="http://www.w3.org/2000/svg" id="Calque_1" data-name="Calque 1" viewBox="0 0 226.77 226.77"><defs><style>.cls-2{fill:#68aaaf}.cls-3{fill:#0f384f}</style></defs><path d="m71.6 190.67 25.63 16.11v-16.11z" class="cls-2"/><path d="m74.44 126.82-.4-27.09a69.5 69.5 0 0 0 19.92 15.54 69.5 69.5 0 0 0 22.51 7.17c-.07 1.99-.13 3.98-.2 5.98l-41.83-1.59Z" class="cls-3"/><path d="M182.44 159.9c-8.94-8.1-24.09-19.74-45.65-27.59a138.3 138.3 0 0 0-39.06-8.06c-10.65-.02-26.05 1.19-43.46 7.08-23.09 7.81-38.99 20.22-47.85 28.32l176.03.24Z" class="cls-2"/><path d="M6.16 159.54c8.94 8.1 24.09 19.74 45.65 27.59a138.3 138.3 0 0 0 39.06 8.06c10.65.02 26.05-1.19 43.46-7.08 23.09-7.81 38.99-20.22 47.85-28.32l-176.03-.24Z" class="cls-3"/><path d="m59.14 127.43 3.45 12.92a71.7 71.7 0 0 1-.29 38.04l-4.38 15.44" style="fill:none;stroke:#1d1d1b;stroke-miterlimit:10;stroke-width:1.92px"/><path d="M181.21 160.51c.91-4.29 3.46-13.41 11.24-21.73 11.04-11.79 24.91-13.75 28.81-14.16-3.49 2.53-11.21 8.89-15.38 20.02-2.52 6.72-2.82 12.72-2.69 16.6-7.41-.49-14.81-.98-22.22-1.46" class="cls-2"/><path d="M181.74 159.31c.67 4.33 2.71 13.58 10.01 22.32 10.36 12.39 24.11 15.11 27.98 15.74-3.34-2.72-10.7-9.5-14.24-20.84-2.14-6.85-2.11-12.86-1.76-16.73-7.42.08-14.84.15-22.26.23" class="cls-3"/><circle cx="45.29" cy="149.71" r="3.2"/></svg>