<svg xmlns="http://www.w3.org/2000/svg" data-name="Calque 1" viewBox="0 0 226.77 226.77"><path d="M118.84 11.42c.19 1.19 1.98 1.49 3.03 2.38 8.55 7.23 15.43 44.5 19.34 56.77 1.7 5.34 3.66 13.33 9.62 15.03 9.75 2.77 24.83 1.18 35.27 1.49 7.77.23 23.59.61 30.17 4.42 1.28.74 2.01 2.06 3.32 2.52v4.76l-3.69 3.88c-10.81 9.98-42.67 19.21-47.35 32.65-1.76 5.05-.47 11.16.58 16.31 2.82 13.77 8.4 27.34 11.76 41 1.3 5.27 4.23 16.82 1.08 21.41-.92 1.35-2.47 1.05-2.6 2.38h-3.03l-6.02-3.71c-15.13-11.94-26.21-28.93-40.68-41.48-11.69-10.14-16.85-7.91-27.69 1.73-13.89 12.36-24.81 28.48-39.37 40.19l-5.16 3.27h-3.03c-.03-1.1-1.13-1.25-1.84-2.27-3.93-5.67 1.15-24.63 2.83-31.55 3.14-12.94 10.23-31.5 10.69-44.24.29-8.11-9.59-13.25-15.71-16.71-10.29-5.83-21.64-10.05-31-17.43l-4.75-5.41v-5.19c1.23-.14 1.53-1.54 2.62-2.35 5.71-4.21 23.89-2.93 31.34-2.86 13.65.14 34.05 4.1 42.22-9.64 11.11-18.68 9.18-45.55 21.12-64.07l3.89-3.24h3.03Zm-2.16 17.3c-1.92 13.68-2.2 27.5-2.58 41.31-.03 1.02-.45 1.97-.47 2.99-.11 5.16-.76 21.01 1.07 24.91 1.47 3.13 5.04 2.81 5.77-.33 1.16-4.94.19-10.1.07-15.03-.39-16.01-.09-35.8-2.69-51.37-.13-.79-.29-2.19-1.18-2.49ZM29.33 99.21c.47.91 2.01 1.29 2.93 1.6 14.91 5.07 36.19 9.17 51.9 11.66 3.06.49 15.03 3.38 15.54-1.44.37-3.51-5.99-4.31-8.45-4.79-9.79-1.9-21.06-3.24-31.02-4.44-10.24-1.24-20.6-2.39-30.91-2.6Zm173.83 0c-10.46.19-20.92 1.39-31.3 2.64s-23.46 2.5-33.23 4.82c-2.79.66-8.87 2.85-4.63 6.12 2.85 2.2 10.69.27 14.33-.31 15.91-2.56 35.54-6.6 50.83-11.44 1.25-.4 3.26-.75 3.99-1.84ZM66.52 191.74c.83.18 1.03-.43 1.47-.9 9.76-10.68 21.67-29.75 29.41-42.37 1.64-2.67 10.29-15.12 6.31-17.48-2.81-1.67-5.4 2.31-6.67 4.15-9.16 13.27-19.1 32.5-26.43 47.09-.54 1.08-4.44 9.14-4.09 9.52Zm99.45.44c-2.09-6.52-5.66-12.56-8.85-18.6-6.25-11.87-13.76-26.65-21.23-37.58-1.44-2.1-4.03-6.56-7.11-5.02-3.32 1.67.55 7.96 1.66 10.03 6.17 11.51 15.44 24.56 23.07 35.31 3.84 5.41 7.71 11.24 12.46 15.86" style="fill:#68aaaf"/><path d="M116.68 28.72c.89.3 1.05 1.7 1.18 2.49 2.6 15.57 2.3 35.35 2.69 51.37.12 4.92 1.09 10.08-.07 15.03-.73 3.14-4.3 3.46-5.77.33-1.83-3.9-1.18-19.74-1.07-24.91.02-1.02.44-1.97.47-2.99.38-13.81.66-27.64 2.58-41.31ZM29.33 99.21c10.3.21 20.66 1.37 30.91 2.6 9.96 1.2 21.23 2.54 31.02 4.44 2.46.48 8.82 1.27 8.45 4.79-.51 4.82-12.47 1.92-15.54 1.44-15.71-2.49-36.99-6.59-51.9-11.66-.92-.31-2.46-.69-2.93-1.6Zm173.83 0c-.73 1.09-2.74 1.44-3.99 1.84-15.3 4.83-34.92 8.87-50.83 11.44-3.64.59-11.48 2.51-14.33.31-4.25-3.27 1.84-5.46 4.63-6.12 9.77-2.32 23.05-3.6 33.23-4.82s20.84-2.45 31.3-2.64Zm-37.19 92.97c-4.74-4.63-8.61-10.45-12.46-15.86-7.63-10.75-16.9-23.79-23.07-35.31-1.11-2.07-4.98-8.36-1.66-10.03 3.08-1.54 5.67 2.91 7.11 5.02 7.47 10.93 14.98 25.71 21.23 37.58 3.19 6.05 6.76 12.08 8.85 18.6m-99.45-.44c-.35-.39 3.55-8.44 4.09-9.52 7.33-14.59 17.27-33.81 26.43-47.09 1.27-1.84 3.86-5.81 6.67-4.15 3.98 2.36-4.68 14.81-6.31 17.48-7.74 12.62-19.65 31.69-29.41 42.37-.44.48-.64 1.09-1.47.9Z" style="fill:#0f384f"/></svg>