<svg xmlns="http://www.w3.org/2000/svg" data-name="Calque 1" viewBox="0 0 226.77 226.77"><path d="m127.35 72.38-30.37 45.01 42.93 48.16 16.75-17.8-12.56-30.36 5.23-34.55-11.52-16.75z" style="fill:#0f384f"/><ellipse cx="161.2" cy="101.99" rx="8.52" ry="11.36" style="fill:#1d1d1b"/><path d="M147.51 68.04c16.04 16.03 31.95 32.06 48.18 48.01l.56.98-90.85 90.43c-8.09-7.95-16.49-15.1-21.1-25.77-5.41-12.5-5.18-26.41 0-38.95l5.79-10.34-30.02 29.81c-6.48-6.81-13.96-12.66-18.65-20.96-9.4-16.6-8.5-36.85 2.35-52.52 4.41-6.36 11.09-11.46 16.3-17.18l30.02 29.81-5.79-10.34c-5.21-12.63-5.39-26.34 0-38.95 4.6-10.75 12.99-17.77 21.1-25.77 1.21-.1 4.38 4.28 5.32 5.21 12.24 12.11 24.58 24.32 36.79 36.52Zm-1.87 9.23-40 39.47 39.79 39.77-5.43-8.46c-12.34-22.26-10.13-50.82 5.64-70.78m20.11 22.98c0-3.15-2.55-5.7-5.7-5.7s-5.7 2.55-5.7 5.7 2.55 5.7 5.7 5.7 5.7-2.55 5.7-5.7" style="fill:#68aaaf"/></svg>