<svg xmlns="http://www.w3.org/2000/svg" data-name="Calque 1" viewBox="0 0 226.77 226.77"><path d="M215.34 152.39c-6.69-9.61-22.48-29.41-50.29-41.67-18.3-8.06-34.9-9.82-45.5-10.06-11.44.47-28.05 2.54-46.46 10.06-28.09 11.46-45.6 29.54-54.13 39.76 6.71 9.44 22.39 28.74 49.81 41.19 21.82 9.91 41.54 11.15 52.69 11.02 11.35-.8 31.7-3.72 53.65-15.81 20.54-11.31 33.41-25.65 40.24-34.49Z" style="fill:#68aaaf"/><path d="m25.98 128.6 18.61 33.05c2.11 3.75 7.52 3.7 9.57-.08l12.18-22.47c2.04-3.76 7.4-3.83 9.54-.13l13.35 23.08c2.11 3.65 7.38 3.64 9.48-.02l12.83-22.39c2.15-3.74 7.58-3.64 9.59.18l11.35 21.62c1.89 3.61 6.93 3.95 9.3.63l17.17-24.09c2.32-3.26 7.24-3 9.21.47l12.9 22.72c2.13 3.74 7.54 3.68 9.58-.12l16.87-31.5" style="fill:none;stroke:#0f384f;stroke-miterlimit:10;stroke-width:5.34px"/></svg>