<svg
    xmlns="http://www.w3.org/2000/svg"
    id="Calque_1"
    data-name="Calque 1"
    viewBox="0 0 226.77 226.77"
><defs><style
        >.cls-1{fill:#68aaaf}.cls-2{fill:#0f384f}.cls-3{fill:#1d1d1b}</style></defs><path
        d="m10.55 63.59 16.98-13.58 17.95 12.13 12.13-12.13v24.98l-11.4-11.4-17.46 12.37z"
        class="cls-1"
    /><path
        d="m10.55 90.39 16.98-13.58 17.95 12.13 12.13-12.13v24.98l-11.4-11.4-17.46 12.37z"
        class="cls-3"
    /><path
        d="m10.55 116.35 16.98-13.59 17.95 12.13 12.13-12.13v24.99l-11.4-11.4-17.46 12.37z"
        class="cls-2"
    /><path
        d="m63.31 71.96 16.98-13.58L98.24 70.5l12.13-12.12v24.98l-11.4-11.4L81.5 84.33z"
        class="cls-1"
    /><path
        d="m63.31 98.76 16.98-13.58 17.95 12.13 12.13-12.13v24.98l-11.4-11.4-17.47 12.37z"
        class="cls-3"
    /><path
        d="m63.31 124.72 16.98-13.59 17.95 12.13 12.13-12.13v24.99l-11.4-11.4-17.47 12.37z"
        class="cls-2"
    /><path
        d="m10.55 142.3 16.98-13.58 17.95 12.13 12.13-12.13v24.98l-11.4-11.4-17.46 12.37z"
        class="cls-1"
    /><path
        d="m10.55 169.1 16.98-13.58 17.95 12.13 12.13-12.13v24.98l-11.4-11.4-17.46 12.38z"
        class="cls-3"
    /><path
        d="m10.55 195.06 16.98-13.58 17.95 12.12 12.13-12.12v24.98l-11.4-11.4-17.46 12.37z"
        class="cls-2"
    /><path
        d="m63.31 151.52 16.98-13.58 17.95 12.12 12.13-12.12v24.98l-11.4-11.4-17.47 12.37z"
        class="cls-1"
    /><path
        d="m63.31 178.32 16.98-13.58 17.95 12.13 12.13-12.13v24.98l-11.4-11.4-17.47 12.37z"
        class="cls-3"
    /><path
        d="m63.31 204.28 16.98-13.59 17.95 12.13 12.13-12.13v24.99l-11.4-11.4-17.47 12.37z"
        class="cls-2"
    /><path
        d="m116.07 54.37 16.98-13.58L151 52.92l12.12-12.13v24.98l-11.4-11.4-17.46 12.37z"
        class="cls-1"
    /><path
        d="m116.07 81.18 16.98-13.59L151 79.72l12.12-12.13v24.99l-11.4-11.4-17.46 12.37z"
        class="cls-3"
    /><path
        d="m116.07 107.13 16.98-13.58L151 105.68l12.12-12.13v24.98l-11.4-11.4-17.46 12.37z"
        class="cls-2"
    /><path
        d="m116.07 133.93 16.98-13.58L151 132.48l12.12-12.13v24.98l-11.4-11.4-17.46 12.37z"
        class="cls-1"
    /><path
        d="m116.07 160.74 16.98-13.59L151 159.28l12.12-12.13v24.99l-11.4-11.4-17.46 12.37z"
        class="cls-3"
    /><path
        d="m116.07 186.69 16.98-13.58L151 185.23l12.12-12.12v24.98l-11.4-11.4-17.46 12.37z"
        class="cls-2"
    /><path
        d="m168.82 71.96 16.98-13.58 17.95 12.12 12.13-12.12v24.98l-11.4-11.4-17.46 12.37z"
        class="cls-1"
    /><path
        d="m168.82 98.76 16.98-13.58 17.95 12.13 12.13-12.13v24.98l-11.4-11.4-17.46 12.37z"
        class="cls-3"
    /><path
        d="m168.82 124.72 16.98-13.59 17.95 12.13 12.13-12.13v24.99l-11.4-11.4-17.46 12.37z"
        class="cls-2"
    /><path
        d="m168.82 151.52 16.98-13.58 17.95 12.12 12.13-12.12v24.98l-11.4-11.4-17.46 12.37z"
        class="cls-1"
    /><path
        d="m168.82 178.32 16.98-13.58 17.95 12.13 12.13-12.13v24.98l-11.4-11.4-17.46 12.37z"
        class="cls-3"
    /><path
        d="m168.82 204.28 16.98-13.59 17.95 12.13 12.13-12.13v24.99l-11.4-11.4-17.46 12.37z"
        class="cls-2"
    /></svg>
