<svg xmlns="http://www.w3.org/2000/svg" id="Calque_1" data-name="Calque 1" viewBox="0 0 226.77 226.77"><defs><style>.cls-1{fill:#68aaaf}.cls-2{fill:#0f384f}</style></defs><path d="M159.28 8.31c3.42 3.16-11.78 21.83-11.49 30.01.46 12.98 14.78 15.58 11.37 35.7-1.09 6.4-11.74 12.67-11.37 24.44.28 9.08 10.04 15.58 11.39 22.9 3.49 18.96-11.36 22.73-11.36 35.66 0 13.09 14.71 16.84 11.55 35.85-1.28 7.7-12.3 15.01-11.66 24.89l-6.29.2c-.9-12.88 11.19-17.28 11.49-30.07.37-15.41-13.51-17.85-11.4-34 1.34-10.26 11.74-14.54 11.4-27.75-.35-13.64-12.52-15.33-11.54-30.84.78-12.31 12.32-14.82 11.56-29.31-.6-11.56-11.78-16.73-11.6-29.18.17-12.19 11.01-16.61 11.65-28.29l6.29-.2Z" class="cls-2"/><path d="M141.41 8.3c1.05 14.04-10.5 15.01-9.87 30.05.61 14.47 13.61 16.02 9.78 35.67-1.54 7.91-9.55 11-9.78 22.86-.29 15.23 12.81 16.62 9.9 35.79-1.56 10.3-9.92 10.61-9.91 24.34 0 13.71 7.64 13.71 9.54 21.48 3.8 15.54-2.93 19.64-8.64 31.31-2.58 5.28 2.99 9.79-7.25 8.16-2.45-12.1 11.23-19.67 11.26-31.56.03-13.83-15.67-15.46-10.17-38.05 1.68-6.89 10.18-11.07 10.17-20.74-.01-10.48-9.67-16.15-11.17-24.33-3.49-19.03 11.63-23 11.17-37.15-.41-12.46-13.05-15.25-11.26-32.64.48-4.68 12.97-29.86 16.23-25.2Z" class="cls-1"/><path d="M91.02 8.31c.66 11.59-11.91 18.28-11.49 30.01.46 12.83 15.36 16.49 11.39 35.71-1.5 7.3-11.79 13.37-11.39 24.43.36 9.97 11.98 17 12.55 27.93.65 12.34-12.51 19.32-12.52 30.63-.01 12.7 14.5 18.39 11.55 35.85-1.3 7.68-11.93 14.43-11.42 24l-4.9 1.11c-2.47-12.96 9.64-17.7 9.85-30.07.25-15.13-13.29-17.21-9.73-37.27 1.7-9.59 10.07-11.8 9.75-24.49-.34-13.78-12.5-16-9.93-35.83 1.12-8.6 10-10.06 9.92-22.68-.1-15.21-12.7-17.03-9.89-35.81 1.3-8.7 10.1-13.61 9.97-23.32zm34.13 0c.66 11.59-11.91 18.28-11.49 30.01.33 9.13 10.04 15.56 11.39 22.9 3.37 18.25-11.08 22.17-11.32 35.63-.18 10.17 9.01 15.99 10.7 21.89 5.89 20.52-10.59 24.23-10.8 38.36-.2 13.42 14.64 17.89 11.61 35.78-1.3 7.69-11.93 14.43-11.42 24l-4.9 1.11c-2.47-12.96 9.63-17.69 9.85-30.07.26-15.15-13.39-16.5-9.73-37.27 1.55-8.81 9.06-11.43 9.76-22.88.79-13.14-7.83-13.15-9.53-21.49-4.69-23.02 9.52-23.51 9.53-38.65 0-15.52-13.49-17.68-9.97-37.47 1.26-7.06 10.75-12.4 10.03-21.64l6.29-.2Z" class="cls-2"/><path d="M175.54 8.3c1.05 14.04-10.5 15.01-9.87 30.05.61 14.47 13.61 16.02 9.78 35.67-1.54 7.91-9.55 11-9.78 22.86-.29 15.23 12.8 16.6 9.91 35.79-2.07 13.7-14.46 12.66-8.21 34.17 1.52 5.22 6.76 7.57 7.48 10.32 4.35 16.63-2.19 20.17-8.29 32.65-2.58 5.28 2.99 9.79-7.25 8.16-2.78-11.38 11.13-19.34 11.43-30.05.42-15.07-16.99-17.82-10.37-39.6 2.07-6.81 10.55-11.53 10.2-22.05-.41-12.17-14.18-16.09-11.32-34.35 1.28-8.15 11.35-14.54 11.48-24.28.18-12.65-14-17.97-11.45-35.83.55-3.88 13.34-27.71 16.26-23.53Z" class="cls-1"/><path d="M58.52 8.32c-.98 10.77-13.6 19.28-13.13 30.02.4 9.02 12.17 17.67 12.71 28.07.64 12.36-11.66 20.12-12.57 28.99-1.1 10.77 12.64 20.55 12.66 32.37.02 11.61-13.23 19.87-12.61 30.78.54 9.4 13.15 17.78 12.79 29.16-.32 10.32-11.84 18.85-12.81 29.18l-4.91 1.08c-2.55-10.41 8.55-17.92 9.82-25.1 3.41-19.3-9.51-19.08-9.96-34.23-.45-15.09 8.19-16.4 9.73-24.46 3.68-19.3-9.51-20.8-9.7-37.3-.19-15.9 12.41-16.18 9.96-34.24-1.33-9.78-9.99-12.31-9.87-25.8.13-13.85 10.54-15.91 9.78-28.53h8.12Z" class="cls-2"/><path d="M74.77 8.31c.67 10.41-10.48 15.62-11.26 25.33-1.36 16.92 10.84 19.69 11.41 32.35.62 13.59-12.31 18.45-11.71 32.55.51 11.87 12.75 17.29 11.63 30.84-.85 10.21-11.62 15.39-11.63 27.64 0 12.7 11.74 17.64 11.59 32.41-.09 9.25-11.51 15.97-11.4 26.11-5.07 9.36-6.34-2.31-4.06-8.94 2.64-7.69 9.07-7.77 8.85-18.71-.29-14.65-10.82-15.69-10.65-30.62.17-14.6 10-16.78 10.66-29.5.7-13.45-10.82-15.18-10.66-30.64.16-14.61 10.66-17.56 10.66-29.51 0-11.39-10.39-17.54-10.97-29.23-.71-14.19 9.6-17.04 11.21-29.89l6.3-.2Zm34.13 0c-.18 10.53-10.91 16.42-11.45 26.82-.76 14.66 10.95 19.06 11.51 30.92.62 13.11-12.19 18.75-11.61 32.49.46 10.8 12.3 18.1 11.47 30.65-.66 10.15-11.52 15.86-11.47 27.82.05 13.34 12.74 19.16 11.66 32.48-.76 9.36-13.54 17.8-11.49 28.49h-4.86c-3.53-13.8 9.93-17.77 9.68-30.09-.31-14.9-10.65-14.12-10.65-28.98 0-16.03 10.65-19.23 10.67-31.16.02-14.65-16.95-19.79-8.94-41.51 1.44-3.92 5.4-5.7 6.41-8.21 8.44-21-9.34-24.62-8.64-42.66.48-12.26 10.16-14.65 11.46-26.85l6.26-.22Z" class="cls-1"/></svg>