<svg
    xmlns="http://www.w3.org/2000/svg"
    viewBox="0 0 204 17"
    width="204"
    height="16"
>
	<defs />
	<g transform="matrix(1,0,0,1,-853.934305733,-537.930000305)">
		<g>
			<g>
				<g transform="matrix(1,0,0,1,-6.927502639,-0.700889547)">
					<path
                        d="M1065.0918126829065,538.6308898521904 C1065.0918126829065,538.6308898521904 860.8618083722987,538.6308898521904 860.8618083722987,538.6308898521904 C860.9318080671229,539.87088771596 861.4018083341517,545.6908874107842 866.301807952682,550.2808913780693 C870.9318090207972,554.610893209124 876.361809325973,554.9008864952568 877.6918092496791,554.9408874107842 C878.9618078000941,554.9708938194756 884.7118078000941,554.9508895470146 889.6018071897425,550.5408935142998 C893.8818097837367,546.6808929039482 894.8118100889125,541.87088771596 895.0418096311488,540.4408874107842 C895.4018102415004,541.9808883263115 897.051807952682,548.2008895470146 903.0618100889125,552.0908889366631 C906.4418073423304,554.2708892418389 909.7618070371547,554.7908935142998 911.6018071897425,554.9408874107842 C913.0018087156215,555.0008925987725 917.8918081052699,555.0408935142998 922.4718099363246,551.5708922935967 C927.731812072555,547.6008910728935 928.7518087156215,541.9008864952568 928.9418111570277,540.7008895470146 C929.1218114622035,541.8208922935967 930.4118047483363,548.9308929039482 936.9618078000941,552.87088771596 C940.9318090207972,555.2508925987725 944.8418050535121,555.2908858849053 946.5418096311488,555.2008895470146 C947.8518071897425,555.2008895470146 953.5918050535121,555.0508880211357 958.4518056638636,550.5408935142998 C962.8818059690394,546.4208907677178 963.7118078000941,541.3408889366631 963.8918081052699,539.9308929039482 C963.9718099363246,540.7208938194756 965.0318074949183,549.7208938194756 972.6918111570277,553.6508864952568 C976.4118047483363,555.5608901573662 980.0118108518519,555.4008864952568 981.7518010862269,555.2008895470146 C983.4018102415004,555.0008925987725 987.6818090207972,554.240890462542 991.5918126829066,550.8008880211357 C996.2718053586879,546.6708907677178 997.3018041379847,541.4508895470146 997.5418096311488,539.9308929039482 C997.9218145139613,541.6408919884209 999.5118108518519,547.7208938194756 1005.3118139036097,551.8408889366631 C1008.6318059690394,554.2008895470146 1011.9518132932582,554.9408874107842 1013.8518071897425,555.2108840538506 C1014.8418126829066,555.3208846642021 1022.1318059690394,555.9908828331475 1027.5718084104456,550.5508880211357 C1031.3618016965784,546.7608871056084 1032.0618139036096,542.2108916832451 1032.231812072555,540.7108916832451 C1032.4018102415002,542.2208938194756 1033.1318059690393,546.7308883263115 1036.8918157346643,550.5508880211357 C1042.0218053586877,555.7508925987725 1048.7418065793909,555.5208968712334 1049.8318029172815,555.4708938194756 C1050.8718114622034,555.4008864952568 1057.3718114622034,554.8808898521904 1061.7418065793909,549.2608871056084 C1065.1718145139612,544.8408889366631 1065.1618047483362,540.0308913780693 1065.1018071897424,538.6508864952568 C1065.1018071897424,538.6508864952568 1065.0918126829065,538.6308898521904 1065.0918126829065,538.6308898521904 Z"
                        fill="#68aaaf"
                    />
				</g>
			</g>
		</g>
	</g>
</svg>
