<svg xmlns="http://www.w3.org/2000/svg" data-name="Calque 1" viewBox="0 0 226.77 226.77"><path d="M142.85 159.24c-5.9 22.93-28.32 32.04-47.49 16.97-5.16-4.06-16.12-19.18-2.16-16.9 6.48 9.82 11.52 14.7 24.24 13.55 12.49-1.13 12.76-14.75 25.41-13.62m0-40.2c-3.04 23.35-31.7 31.55-48.83 16.09-4.59-4.15-14.07-18.67-.82-16.02 6.48 9.82 11.52 14.7 24.24 13.55 12.49-1.13 12.76-14.75 25.41-13.62m-113.09.59c7.45 18.17 31.9 17.18 39.41-.67l6.73 4.07c-9.92 29.4-49.46 25.3-56.31-3.98l10.17.57Zm.02 40.23c6.82 19.16 31.82 16.79 39.39-.7l6.73 4.07c-8.13 28.38-53.01 26.82-53.61-4zm131.32-40.2c6.17 16.89 31.02 17.72 37.82 1.16l10.95-1.77c-7.84 30.85-53.31 32.81-56.26-.01l7.5.62Zm-.01 40.2c5.71 17.83 30.68 17.52 37.82 1.16l10.95-1.77c-7.84 30.85-53.31 32.81-56.26-.01l7.49.63Z" style="fill:#0f384f"/></svg>